<svg xmlns="http://www.w3.org/2000/svg" width="20" height="24" viewBox="0 0 20 24">
  <path id="brush" d="M17.831,7.672c1.1-1.1,2.875-1.865,3.688-3.106a2.948,2.948,0,1,0-4.932-3.231c-.842,1.286-.8,3.322-1.433,4.779C14.337,8,11.6,8.23,8.456,6.588A59.543,59.543,0,0,1,2,16.462l2.263,1.484a4.394,4.394,0,0,0,2.792-2.03A4.108,4.108,0,0,1,5.718,18.9l4.275,2.8a10.194,10.194,0,0,1,1.616-1.345,6.712,6.712,0,0,0-.63,1.99L13.511,24a72.117,72.117,0,0,1,6.455-9.874c-2.82-2.272-3.657-4.936-2.135-6.454Zm1.762-5.545a.983.983,0,1,1-1.359.286.98.98,0,0,1,1.359-.286ZM15.634,17.164,7.409,11.778,9.025,9.309,17.246,14.7Z" transform="translate(-2 0)" fill="#161616"/>
</svg>
