<svg xmlns="http://www.w3.org/2000/svg" width="57.262" height="57.262" viewBox="0 0 57.262 57.262">
  <path id="bucket_and_paint" data-name="bucket and paint" d="M53.4,0a3.873,3.873,0,0,0-2.353.8c-1.6,1.224-2.436,3.76-3.851,5.29-1.837,1.976-5.323,1.071-8.5-2.333-3.6,3.4-8.122,7.132-13.044,8.437l2.906,3.8a5.766,5.766,0,0,0,4.34-1.3A5.392,5.392,0,0,1,29.939,17.8l1.231,1.61c2.913,3.794-3.443,4.194-7.091,4.19-4.357,0-13.762-.933-13.762-3.319,0-2.651,11.04-3.891,14.065-3.844l-3.009-4.161c-8.47.4-13.5,2.751-15.513,4.76A2.932,2.932,0,0,0,4.822,18.9V21.43C1.725,24,0,27.009,0,30.012a7.428,7.428,0,0,0,4.018,6.595A13.933,13.933,0,0,0,10.906,38.2a27.827,27.827,0,0,0,10.77-2.462,3.569,3.569,0,1,1,3.376,2.441,3.533,3.533,0,0,1-1.847-.527,30.713,30.713,0,0,1-12.3,2.932,17.862,17.862,0,0,1-6.094-1.007l0,8.749A5.955,5.955,0,0,0,6.721,52.55c2.758,2.756,8.494,4.712,17.241,4.712,9.324,0,16.57-2.257,19.693-5.38a5.082,5.082,0,0,0,1.677-3.56V21.113c1.615-1.164,3.178-2.231,4.474-3.033-2.5-4.042-2.527-7.683.021-8.9,1.832-.878,4.369-1.055,5.915-2.238A3.87,3.87,0,0,0,53.4,0ZM4.815,34.255A4.958,4.958,0,0,1,2.407,30.01a8.133,8.133,0,0,1,2.415-5.294Zm33.36,15.477A15.282,15.282,0,0,1,33.4,51.073V27.586a15.611,15.611,0,0,0,4.772-1.231ZM42.259,19,35.7,10.553,38.774,8.2l6.609,8.5ZM54.177,4.894a1.288,1.288,0,1,1,.246-1.809A1.29,1.29,0,0,1,54.177,4.894Z" transform="translate(0)" fill="#fff"/>
</svg>
