<svg xmlns="http://www.w3.org/2000/svg" width="25.499" height="25.5" viewBox="0 0 25.499 25.5">
  <path id="cart3" d="M0,1.85A.85.85,0,0,1,.85,1H3.4a.85.85,0,0,1,.824.644L4.913,4.4H24.65a.85.85,0,0,1,.833,1.017l-1.7,8.5a.85.85,0,0,1-.79.682l-15.975.8L7.505,18H22.1a.85.85,0,1,1,0,1.7H6.8a.85.85,0,0,1-.835-.694L3.417,5.432,2.737,2.7H.85A.85.85,0,0,1,0,1.85ZM5.273,6.1,6.7,13.714l15.545-.78L23.613,6.1ZM8.5,19.7a3.4,3.4,0,1,0,3.4,3.4A3.4,3.4,0,0,0,8.5,19.7Zm11.9,0a3.4,3.4,0,1,0,3.4,3.4A3.4,3.4,0,0,0,20.4,19.7ZM8.5,21.4a1.7,1.7,0,1,1-1.7,1.7A1.7,1.7,0,0,1,8.5,21.4Zm11.9,0a1.7,1.7,0,1,1-1.7,1.7A1.7,1.7,0,0,1,20.4,21.4Z" transform="translate(0 -1)" fill="#a4a4a4"/>
</svg>
