<svg xmlns="http://www.w3.org/2000/svg" width="24" height="24" viewBox="0 0 24 24">
  <path id="paint_bucket" d="M24,1.618A1.62,1.62,0,0,0,21.4.334c-.67.513-1.021,1.576-1.613,2.217-.77.828-2.416.449-3.75-.978A14.723,14.723,0,0,1,10.583,5l1.2,1.7A2.413,2.413,0,0,0,13.6,6.157a2.261,2.261,0,0,1-1.238,1.3l.523.686c1.193,1.557-1.232,1.747-2.824,1.745C8.236,9.892,4.294,9.5,4.294,8.5c0-1.171,4.411-1.6,5.768-1.58L8.777,5.151c-3.461.189-5.52,1.16-6.35,1.99A1.215,1.215,0,0,0,2,7.923V9.992a4.815,4.815,0,0,0-2,3.587c0,2.246,2.071,3.43,4.562,3.43a11.579,11.579,0,0,0,5.017-1.333A1.482,1.482,0,0,0,10.5,16a1.5,1.5,0,1,0-1.461-1.169A10.235,10.235,0,0,1,3.971,15.98V10.856c1.49,1.032,5.594,1.389,8.9,1.073A1.044,1.044,0,0,1,14,12.924V16a.975.975,0,0,0,.971,1,1,1,0,0,0,1-1V12.745A2.427,2.427,0,0,1,17,10.856v9.39C16.943,20.52,14.764,22,10.014,22c-4.8,0-5.984-1.482-6.043-1.747V18.026A4.629,4.629,0,0,1,2,17.539v2.714a2.477,2.477,0,0,0,.787,1.772C3.943,23.18,6.348,24,10.014,24c3.908,0,6.945-.946,8.254-2.255a2.128,2.128,0,0,0,.7-1.491V8.738c.621-.443,1.219-.85,1.719-1.16-1.047-1.694-.873-3.22.195-3.729a14.5,14.5,0,0,0,2.479-.938A1.626,1.626,0,0,0,24,1.618ZM1,13.578a3.406,3.406,0,0,1,1-2.207V15.35A2.072,2.072,0,0,1,1,13.578ZM17.5,7.965,14.775,4.424l1.291-.986,2.747,3.583Zm5.206-5.914a.539.539,0,1,1,.1-.758A.541.541,0,0,1,22.707,2.051Z" transform="translate(0)" fill="#161616"/>
</svg>
