<svg xmlns="http://www.w3.org/2000/svg" width="25.5" height="25.5" viewBox="0 0 25.5 25.5">
  <path id="person" d="M14.75,14.75A6.375,6.375,0,1,0,8.375,8.375,6.375,6.375,0,0,0,14.75,14.75ZM19,8.375a4.25,4.25,0,1,1-4.25-4.25A4.25,4.25,0,0,1,19,8.375Zm8.5,17A2.081,2.081,0,0,1,25.375,27.5H4.125A2.081,2.081,0,0,1,2,25.375c0-2.125,2.125-8.5,12.75-8.5S27.5,23.25,27.5,25.375Zm-2.125-.009a5.678,5.678,0,0,0-1.768-3.536C22.221,20.445,19.614,19,14.75,19s-7.471,1.445-8.857,2.831a5.69,5.69,0,0,0-1.768,3.536Z" transform="translate(-2 -2)" fill="#a4a4a4"/>
</svg>
