<svg xmlns="http://www.w3.org/2000/svg" width="27.2" height="25.5" viewBox="0 0 27.2 25.5">
  <path id="shop" d="M5.049,1.595A1.7,1.7,0,0,1,6.341,1H20.859a1.7,1.7,0,0,1,1.292.6L26.586,6.77A2.55,2.55,0,0,1,27.2,8.429v.434a4.037,4.037,0,0,1-7.225,2.479,4.038,4.038,0,0,1-6.375,0,4.038,4.038,0,0,1-6.375,0A4.037,4.037,0,0,1,0,8.862V8.429A2.55,2.55,0,0,1,.614,6.77L5.051,1.593ZM8.075,8.862a2.337,2.337,0,1,0,4.675,0,.85.85,0,1,1,1.7,0,2.337,2.337,0,0,0,4.675,0,.85.85,0,1,1,1.7,0,2.337,2.337,0,1,0,4.675,0V8.429a.85.85,0,0,0-.2-.553L20.859,2.7H6.341L1.9,7.876a.85.85,0,0,0-.2.552v.434a2.337,2.337,0,1,0,4.675,0,.85.85,0,1,1,1.7,0ZM2.55,13.75a.85.85,0,0,1,.85.85V24.8H5.1V16.3a1.7,1.7,0,0,1,1.7-1.7h5.1a1.7,1.7,0,0,1,1.7,1.7v8.5H23.8V14.6a.85.85,0,1,1,1.7,0V24.8h.85a.85.85,0,0,1,0,1.7H.85a.85.85,0,0,1,0-1.7H1.7V14.6a.85.85,0,0,1,.85-.85ZM6.8,24.8h5.1V16.3H6.8Zm8.5-8.5A1.7,1.7,0,0,1,17,14.6h3.4a1.7,1.7,0,0,1,1.7,1.7v5.1a1.7,1.7,0,0,1-1.7,1.7H17a1.7,1.7,0,0,1-1.7-1.7Zm5.1,0H17v5.1h3.4Z" transform="translate(0 -1)" fill="#5b4da7"/>
</svg>
