<svg xmlns="http://www.w3.org/2000/svg" width="40.153" height="48.184" viewBox="0 0 40.153 48.184">
  <path id="time" d="M10.031,28.107H22.076V16.061A12.046,12.046,0,1,1,10.031,28.107Zm32.122,0A20.076,20.076,0,1,1,22.076,8.031,20.077,20.077,0,0,1,42.153,28.107Zm-4.015,0A16.061,16.061,0,1,0,22.076,44.168,16.08,16.08,0,0,0,38.138,28.107ZM26.092,4.379V0H18.061V4.379A22.441,22.441,0,0,1,26.092,4.379ZM39.5,11.514l2.652-2.652L39.314,6.023,36.489,8.848A24.36,24.36,0,0,1,39.5,11.514Z" transform="translate(-2)" fill="#5b4da7"/>
</svg>
